<svg xmlns="http://www.w3.org/2000/svg" width="24" height="24" viewBox="0 0 24 24">
    <g fill="none" fill-rule="evenodd">
        <g fill="#FFF">
            <g>
                <path d="M1035.82 73h-11.495c-.732 0-1.325-.593-1.325-1.325v-21.35c0-.732.593-1.325 1.325-1.325h21.35c.732 0 1.325.593 1.325 1.325v21.35c0 .732-.593 1.325-1.325 1.325h-6.115v-9.294h3.12l.466-3.622h-3.586V57.77c0-1.048.29-1.763 1.795-1.763h1.918v-3.24c-.332-.045-1.47-.143-2.795-.143-2.766 0-4.659 1.688-4.659 4.788v2.67h-3.127v3.623h3.127V73z" transform="translate(-1023.000000, -1893.000000) translate(0.000000, 1844.000000)"/>
            </g>
        </g>
    </g>
</svg>
