<svg xmlns="http://www.w3.org/2000/svg" width="24" height="24" viewBox="0 0 24 24">
    <g fill="none" fill-rule="evenodd">
        <g fill="#FFF">
            <g>
                <path d="M1181.409 49c1.367.004 2.018.013 2.63.034l.324.012.584.025c1.278.059 2.15.262 2.913.558.79.307 1.459.717 2.126 1.384.667.668 1.077 1.337 1.384 2.126.297.763.5 1.636.558 2.913.05 1.11.068 1.564.071 3.787v2.321c-.002 1.454-.01 2.151-.03 2.77l-.016.433-.025.584c-.058 1.278-.261 2.15-.558 2.913-.307.79-.717 1.459-1.384 2.126-.667.667-1.337 1.077-2.126 1.384-.763.297-1.635.5-2.913.558l-.584.025-.433.016c-.619.02-1.316.028-2.77.03h-2.32c-2.224-.003-2.679-.02-3.788-.071-1.277-.058-2.15-.261-2.913-.558-.79-.307-1.458-.717-2.126-1.384-.667-.667-1.077-1.337-1.384-2.126-.296-.763-.5-1.635-.558-2.913l-.025-.584-.012-.324c-.021-.612-.03-1.263-.034-2.63V59.59c.005-2.01.023-2.472.071-3.538.059-1.277.262-2.15.558-2.913.307-.79.717-1.458 1.384-2.126.668-.667 1.337-1.077 2.126-1.384.763-.296 1.636-.5 2.913-.558 1.066-.048 1.528-.066 3.538-.07zm-.53 2.162h-1.76c-2.408.002-2.83.017-3.969.07-1.17.053-1.805.248-2.228.413-.56.217-.96.477-1.38.897-.42.42-.68.82-.897 1.38-.165.423-.36 1.058-.414 2.228-.052 1.14-.067 1.56-.07 3.97v1.76c.003 2.409.018 2.83.07 3.969.054 1.17.25 1.805.414 2.228.217.56.477.96.897 1.38.42.42.82.68 1.38.898.423.164 1.058.36 2.228.413l.576.025.213.008c.667.024 1.327.034 2.92.036h2.28c1.595-.002 2.254-.012 2.922-.036l.212-.008.576-.025c1.17-.054 1.805-.25 2.228-.413.56-.218.96-.478 1.38-.898.42-.42.68-.82.898-1.38.164-.423.36-1.058.413-2.228l.025-.576.008-.212c.024-.668.034-1.327.036-2.922v-2.28c-.003-2.18-.02-2.612-.07-3.709-.053-1.17-.248-1.805-.412-2.228-.218-.56-.478-.96-.898-1.38-.42-.42-.82-.68-1.38-.897-.423-.165-1.058-.36-2.228-.414-1.14-.052-1.56-.067-3.97-.07zm-.88 3.675c3.404 0 6.163 2.76 6.163 6.163 0 3.403-2.759 6.162-6.162 6.162-3.404 0-6.163-2.759-6.163-6.162 0-3.404 2.76-6.163 6.163-6.163zm0 2.162c-2.209 0-4 1.791-4 4 0 2.21 1.791 4 4 4 2.21 0 4-1.79 4-4 0-2.209-1.79-4-4-4zm6.406-3.845c.796 0 1.44.644 1.44 1.44 0 .795-.644 1.44-1.44 1.44-.795 0-1.44-.645-1.44-1.44 0-.796.645-1.44 1.44-1.44z" transform="translate(-1168.000000, -1893.000000) translate(0.000000, 1844.000000)"/>
            </g>
        </g>
    </g>
</svg>
