<svg xmlns="http://www.w3.org/2000/svg" width="24" height="22" viewBox="0 0 24 22">
    <g fill="none" fill-rule="evenodd">
        <g fill="#FFF">
            <g>
                <path d="M1336 72h-5.304v-7.734c0-2.024-.83-3.406-2.655-3.406-1.395 0-2.171.932-2.533 1.831-.135.323-.114.772-.114 1.222V72h-5.255s.068-13.7 0-14.945h5.255V59.4c.31-1.025 1.99-2.489 4.67-2.489 3.324 0 5.936 2.15 5.936 6.779V72zm-21.175-16.814h-.034c-1.693 0-2.791-1.143-2.791-2.591 0-1.476 1.13-2.595 2.857-2.595 1.726 0 2.787 1.116 2.821 2.59 0 1.449-1.095 2.596-2.853 2.596zm-2.22 1.869h4.678V72h-4.678V57.055z" transform="translate(-1312.000000, -1894.000000) translate(0.000000, 1844.000000)"/>
            </g>
        </g>
    </g>
</svg>
