<svg xmlns="http://www.w3.org/2000/svg" width="24" height="17" viewBox="0 0 24 17">
    <g fill="none" fill-rule="evenodd">
        <g fill="#FFF">
            <g>
                <path d="M1249.522 63.635v-6.791l6.484 3.407-6.484 3.384zm14.238-7.968s-.235-1.665-.954-2.399c-.913-.963-1.936-.967-2.405-1.023-3.358-.245-8.396-.245-8.396-.245h-.01s-5.038 0-8.396.245c-.47.056-1.492.06-2.406 1.023-.719.734-.953 2.4-.953 2.4s-.24 1.955-.24 3.91v1.835c0 1.956.24 3.912.24 3.912s.234 1.665.953 2.399c.914.963 2.113.932 2.647 1.033 1.92.186 8.16.243 8.16.243s5.043-.008 8.401-.252c.47-.057 1.492-.061 2.405-1.024.72-.734.954-2.4.954-2.4s.24-1.955.24-3.911v-1.834c0-1.956-.24-3.912-.24-3.912z" transform="translate(-1240.000000, -1896.000000) translate(0.000000, 1844.000000)"/>
            </g>
        </g>
    </g>
</svg>
