<svg xmlns="http://www.w3.org/2000/svg" viewBox="0 0 438.6 64.26"><defs><style>.cls-1{fill:#0e3c7b;}.cls-2{fill:#e1251b;}.cls-3{fill:#0082ca;}</style></defs><g id="Layer_2" data-name="Layer 2"><g id="Layer_1-2" data-name="Layer 1"><polygon class="cls-1" points="174.07 16.86 161.91 47.85 149.6 16.86 134.72 16.86 154.57 64.18 168.63 64.18 188.3 16.86 174.07 16.86"/><rect class="cls-1" x="222.15" y="16.5" width="13.15" height="47.74"/><rect class="cls-1" x="319.23" y="16.5" width="13.15" height="47.74"/><polygon class="cls-1" points="265.08 26.98 258.07 51.67 250.94 26.96 237.07 26.94 249.51 64.24 265.5 64.24 277.88 26.98 265.08 26.98"/><polygon class="cls-1" points="336.53 26.98 336.51 64.26 349.67 64.26 349.67 26.98 336.53 26.98"/><rect class="cls-1" x="336.51" y="16.5" width="13.16" height="7.01"/><path class="cls-1" d="M379.53,27H353.87V64.24H367V34.69h9.87V64.24H390V36.46C390,29,385.29,27,379.53,27Z"/><path class="cls-1" d="M305.48,64.24c6.42,0,9.6-3.06,9.6-8.8,0-5,0-19.3,0-19.3,0-7.62-5-9.16-9.73-9.16H288.21c-4.7,0-9.74,1.54-9.74,9.16,0,0,0,14.25,0,19.3,0,5.74,3.19,8.8,9.61,8.8ZM291.74,56.5V34.65h10.11V56.5Z"/><path class="cls-1" d="M217.86,36.49c0-7.47-4.78-9.52-11.2-9.52H187.87l-2.93,7h19.81v5.3H191.48c-5.42,0-10.46,1.79-10.46,9.53,0,4.51,0,7.23,0,7.23,0,5.58,3.31,8.19,10.13,8.19l26.7,0Zm-13.12,20H193.61V46.31h11.14Z"/><path class="cls-1" d="M393.89,37V54.71a9.6,9.6,0,0,0,2,6.37c1.71,2,4.42,3.16,9.29,3.16h20.95l1.87-7H407v-6h13.92c5.79,0,9.35-2.17,9.35-8.66V35.61c0-6.76-4.47-8.64-10.34-8.64H405.07C398.49,27,393.89,29.82,393.89,37ZM407,34.71h11.13v9.47H407Z"/><path class="cls-1" d="M431.24,61.6v-.81h3v.81h-1v2.59h-1V61.6Zm4.72-.81.62,2,.61-2h1.41v3.4h-.9V61.72L437,64.19h-.77l-.74-2.46v2.46h-.9v-3.4Z"/><polygon class="cls-1" points="43.73 64.25 86.37 64.25 65.05 32.2 43.73 64.25"/><polygon class="cls-2" points="43.77 0 0 0 43.73 64.25 65.05 32.2 43.77 0"/><polygon class="cls-3" points="86.51 0 65.05 32.2 86.37 64.25 130.28 0 86.51 0"/><path class="cls-1" d="M93.07,62v-.72h2.66V62h-.9v2.28H94V62Zm4.16-.72L97.78,63l.54-1.73h1.25v3h-.8V62.08l-.66,2.17h-.67l-.65-2.17v2.17H96v-3Z"/></g></g></svg>